HIERARCHY
ROOT Hips
{
	OFFSET -3.958830 18.904000 13.208200
	CHANNELS 6 Xposition Yposition Zposition Zrotation Yrotation Xrotation 
	JOINT LHipJoint
	{
		OFFSET 0.000000 0.000000 0.000000
		CHANNELS 3 Zrotation Yrotation Xrotation
		JOINT LeftUpLeg
		{
			OFFSET 1.800000 -1.400000 0.085000
			CHANNELS 3 Zrotation Yrotation Xrotation
			JOINT LeftLeg
			{
				OFFSET 2.215000 -6.000000 0.000000
				CHANNELS 3 Zrotation Yrotation Xrotation
				JOINT LeftFoot
				{
					OFFSET 2.500000 -6.900000 0.000000
					CHANNELS 3 Zrotation Yrotation Xrotation
					JOINT LeftToeBase
					{
						OFFSET 0.200000 -0.500000 1.950000
						CHANNELS 3 Zrotation Yrotation Xrotation
						End Site
						{
							OFFSET 0.000000 0.000000 0.000000
						}
					}
				}
			}
		}
	}
	JOINT RHipJoint
	{
		OFFSET 0.000000 0.000000 0.000000
		CHANNELS 3 Zrotation Yrotation Xrotation
		JOINT RightUpLeg
		{
			OFFSET -1.800000 -1.400000 0.085000
			CHANNELS 3 Zrotation Yrotation Xrotation
			JOINT RightLeg
			{
				OFFSET -2.215000 -6.000000 0.000000
				CHANNELS 3 Zrotation Yrotation Xrotation
				JOINT RightFoot
				{
					OFFSET -2.500000 -6.900000 0.000000
					CHANNELS 3 Zrotation Yrotation Xrotation
					JOINT RightToeBase
					{
						OFFSET -0.200000 -0.500000 1.950000
						CHANNELS 3 Zrotation Yrotation Xrotation
						End Site
						{
							OFFSET 0.000000 0.000000 0.000000
						}
					}
				}
			}
		}
	}
	JOINT LowerBack
	{
		OFFSET 0.000000 0.000000 0.000000
		CHANNELS 3 Zrotation Yrotation Xrotation
		JOINT Spine
		{
			OFFSET -0.087000 1.940000 -0.288900
			CHANNELS 3 Zrotation Yrotation Xrotation
			JOINT Spine1
			{
				OFFSET 0.000000 1.950000 0.060000
				CHANNELS 3 Zrotation Yrotation Xrotation
				JOINT Neck
				{
					OFFSET 0.000000 0.000000 0.000000
					CHANNELS 3 Zrotation Yrotation Xrotation
					JOINT Neck1
					{
						OFFSET 0.000000 1.600000 0.340000
						CHANNELS 3 Zrotation Yrotation Xrotation
						JOINT Head
						{
							OFFSET 0.000000 1.667000 -0.240000
							CHANNELS 3 Zrotation Yrotation Xrotation
							End Site
							{
								OFFSET 0.000000 0.000000 0.000000
							}
						}
					}
				}
				JOINT LeftShoulder
				{
					OFFSET 0.000000 0.000000 0.000000
					CHANNELS 3 Zrotation Yrotation Xrotation
					JOINT LeftArm
					{
						OFFSET 2.700000 1.550000 -0.730000
						CHANNELS 3 Zrotation Yrotation Xrotation
						JOINT LeftForeArm
						{
							OFFSET 5.450000 0.000000 0.000000
							CHANNELS 3 Zrotation Yrotation Xrotation
							JOINT LeftHand
							{
								OFFSET 3.450000 0.000000 0.000000
								CHANNELS 3 Zrotation Yrotation Xrotation
								JOINT LeftHandIndex1
								{
									OFFSET 0.750000 0.000000 0.000000
									CHANNELS 3 Zrotation Yrotation Xrotation
									End Site
									{
										OFFSET 0.000000 0.000000 0.000000
									}
								}
							}
						}
					}
				}
				JOINT RightShoulder
				{
					OFFSET 0.000000 0.000000 0.000000
					CHANNELS 3 Zrotation Yrotation Xrotation
					JOINT RightArm
					{
						OFFSET -2.700000 1.550000 -0.730000
						CHANNELS 3 Zrotation Yrotation Xrotation
						JOINT RightForeArm
						{
							OFFSET -5.450000 0.000000 0.000000
							CHANNELS 3 Zrotation Yrotation Xrotation
							JOINT RightHand
							{
								OFFSET -3.450000 0.000000 0.000000
								CHANNELS 3 Zrotation Yrotation Xrotation
								JOINT RightHandIndex1
								{
									OFFSET -0.750000 0.000000 0.000000
									CHANNELS 3 Zrotation Yrotation Xrotation
									End Site
									{
										OFFSET 0.000000 0.000000 0.000000
									}
								}
							}
						}
					}
				}
			}
		}
	}
}
MOTION
Frames: 13
Frame Time: 0.016667
0.107680 17.284000 -3.492800 -4.679760 -14.466120 -7.474596 -14.676972 13.563103 3.251550 5.409810 -1.558213 -13.870347 -9.474296 6.015783 13.102920 -0.413507 3.842261 3.115590 0.484140 0.127050 0.571860 18.503974 -11.302565 3.145146 -0.789436 -0.092733 -1.967137 8.170103 -6.584597 16.622721 -0.745460 -4.019531 2.957524 -0.047820 -0.279170 0.185290 -4.346574 -1.403085 -7.870414 25.489066 -4.808966 26.564746 -19.087160 3.494730 5.353334 11.601471 -3.574405 -13.955232 -13.091061 7.387566 62.686753 -5.792900 0.386070 -15.754830 -27.483849 -11.029269 3.015729 -40.680835 -1.583195 -5.750696 -11.359102 -20.600288 -0.280766 -3.288202 2.844733 0.809990 -0.320290 0.349260 -0.028310 3.487553 16.142836 9.970995 18.809802 -6.753794 -16.382858 -66.910598 57.433527 -34.284013 1.534386 -0.540444 -0.005820 0.145290 -0.001030 -0.313070 
0.111500 17.285490 -3.498580 -4.853539 -14.399351 -7.620531 -14.712218 13.633841 3.254147 5.642514 -1.474180 -13.741353 -9.418485 6.013695 13.025937 -0.408234 3.854927 3.108085 0.499840 0.137710 0.587540 18.466066 -11.236877 3.162830 -0.559482 -0.131344 -1.630536 8.143335 -6.532162 16.358904 -0.759650 -4.003962 2.959588 -0.045190 -0.296190 0.190810 -4.238014 -1.611606 -7.907282 25.255390 -4.791672 27.109781 -18.715679 3.710197 5.138931 11.826748 -3.361712 -14.228060 -12.799524 7.140716 63.216857 -5.875130 0.239980 -15.831210 -27.775137 -11.441826 3.162639 -40.884574 -1.310120 -5.596298 -11.501370 -19.459177 -0.359313 -3.275414 2.843640 0.821510 -0.330800 0.362880 -0.025090 3.360044 16.728136 10.109713 17.623634 -7.208773 -16.281982 -63.288586 55.954010 -30.997459 1.589561 -0.680125 0.001040 0.136790 -0.012210 -0.318190 
0.116270 17.284260 -3.504360 -5.126781 -14.285328 -7.841429 -14.787830 13.765937 3.259389 6.014365 -1.312403 -13.492587 -9.326923 6.018590 12.859091 -0.407602 3.889475 3.086440 0.513710 0.145430 0.606120 18.388785 -11.102625 3.190302 -0.194015 -0.199633 -1.020417 8.195580 -6.455441 15.839325 -0.772760 -3.983825 2.957883 -0.039040 -0.319450 0.195870 -4.015316 -2.017692 -7.976974 24.557388 -4.674327 27.997524 -17.694261 4.012012 4.793048 12.242057 -3.182456 -14.431754 -12.366131 6.791069 63.560464 -6.115000 0.098270 -16.131480 -28.244741 -11.511602 3.153451 -41.614741 -0.685090 -5.622032 -11.816523 -18.263613 -0.481576 -3.267667 2.840971 0.835610 -0.342940 0.375630 -0.030010 3.069089 17.245280 10.225746 15.444589 -6.937476 -15.579713 -57.871497 51.882136 -25.566081 1.706787 -0.896894 0.003940 0.125410 -0.018120 -0.329650 
0.116300 17.282780 -3.510820 -5.114547 -14.092106 -8.331068 -14.893095 13.919337 3.281860 6.434651 -1.122055 -13.061156 -9.616876 6.150159 12.747879 -0.392919 3.981360 3.041240 0.532930 0.168990 0.630040 18.283116 -10.935353 3.198962 -0.164165 -0.302959 -0.145835 8.357478 -6.406333 15.197879 -0.796136 -3.976286 2.951815 -0.025750 -0.351820 0.193920 -3.713669 -2.528712 -8.068990 23.112794 -4.381443 29.279079 -16.239448 4.371436 4.485439 12.615440 -3.014495 -14.622393 -12.003829 6.513372 63.985446 -6.473850 0.057300 -17.079130 -28.672004 -11.439398 3.052955 -42.179794 0.015485 -5.849959 -12.764371 -17.694847 -0.511399 -3.248398 2.834327 0.854440 -0.363180 0.398550 -0.036410 2.878676 17.699478 10.407098 13.308320 -6.236636 -14.654951 -53.152232 45.893171 -20.350738 1.840999 -1.069092 0.007550 0.122880 -0.028110 -0.341270 
0.106740 17.284500 -3.516260 -4.868969 -13.956315 -8.750283 -15.007071 14.066485 3.318406 6.750198 -0.960724 -12.698983 -10.055901 6.297637 12.601245 -0.374005 4.073490 2.989600 0.574210 0.205000 0.674780 18.169940 -10.766729 3.187469 -0.357659 -0.335452 0.551875 8.578462 -6.381680 14.700269 -0.826399 -3.968211 2.942049 -0.012210 -0.400860 0.205650 -3.390951 -3.044192 -8.167828 21.298082 -3.821434 30.464346 -14.557142 4.855524 3.996140 12.796292 -2.733742 -14.820474 -11.492913 6.234649 65.021477 -6.989770 0.111180 -18.128270 -29.180220 -11.290985 2.993793 -42.433869 1.052791 -6.269807 -14.316754 -17.742095 -0.456115 -3.212098 2.851894 0.882630 -0.391040 0.433580 -0.040380 3.175115 18.011029 10.596808 12.330069 -5.373503 -14.064586 -52.472302 39.005311 -17.418605 1.970557 -1.194100 0.025280 0.103590 -0.049800 -0.357950 
0.090330 17.276770 -3.518140 -4.620643 -13.775775 -8.762698 -15.139061 14.222411 3.362152 7.003270 -0.863702 -13.094913 -10.528602 6.524190 12.951010 -0.331847 4.162888 2.935856 0.594490 0.226220 0.695200 18.040141 -10.581552 3.165309 -0.436168 -0.284104 0.803757 8.847196 -6.352807 14.381017 -0.833766 -3.941166 2.944423 -0.015780 -0.435570 0.224450 -3.020150 -3.601967 -8.283296 19.225962 -3.026311 31.229940 -12.537301 5.434004 3.098927 13.019940 -2.485744 -14.884983 -10.799848 5.856649 65.694148 -8.053830 0.311960 -18.223880 -29.405879 -10.584505 2.857399 -43.092545 2.422314 -6.929262 -16.261132 -18.404900 -0.306230 -3.192282 2.889352 0.881090 -0.402410 0.456410 -0.041790 3.144135 17.977089 10.648375 12.878657 -4.494774 -14.068173 -55.279925 34.100866 -16.928006 2.066952 -1.287788 0.055780 0.069940 -0.066430 -0.358760 
0.068310 17.268940 -3.522140 -4.578759 -13.840320 -8.763284 -15.226058 14.324499 3.380568 7.578606 -0.739254 -13.788281 -11.090265 6.905971 13.883984 -0.295140 4.301343 2.861993 0.615220 0.251810 0.707150 17.956726 -10.445121 3.151855 -0.407654 -0.212042 0.985419 9.186263 -6.365988 14.280260 -0.851915 -3.923044 2.947514 -0.014950 -0.467190 0.227360 -2.776313 -3.984806 -8.349456 17.910503 -2.426951 31.979159 -10.873571 5.993500 2.142204 12.854660 -2.634595 -14.829647 -11.130680 6.098153 66.567185 -8.355750 0.344150 -19.129010 -29.392980 -9.766330 2.796181 -43.825873 3.834198 -7.664749 -18.503315 -19.294280 -0.088941 -3.161047 2.909170 0.895620 -0.429210 0.482720 -0.038160 3.619041 17.864621 10.426533 14.132258 -3.931823 -14.753417 -61.907289 32.487502 -19.294075 2.101445 -1.317463 0.075320 0.059470 -0.080880 -0.356990 
0.038540 17.251940 -3.526330 -4.705074 -13.895930 -8.575964 -15.292743 14.376980 3.397884 8.289254 -0.615948 -14.950676 -11.663993 7.381321 15.132495 -0.260779 4.459658 2.784837 0.611370 0.259710 0.703820 17.896314 -10.344490 3.144744 -0.048395 -0.120651 0.883269 9.378377 -6.369347 14.481811 -0.850589 -3.893470 2.965151 -0.018210 -0.484700 0.208330 -2.592606 -4.219944 -8.404510 16.755896 -1.842880 32.524484 -9.251579 6.523243 1.171761 12.540148 -2.720210 -14.451602 -10.884555 5.983670 66.713576 -8.855870 0.511180 -20.103800 -29.066107 -8.404195 2.489080 -44.453884 5.033719 -8.352167 -21.170168 -20.173236 0.269357 -3.147762 2.907482 0.898440 -0.448410 0.491280 -0.038840 4.016033 17.044866 10.039288 16.807311 -3.014983 -15.512337 -71.146537 32.885340 -24.202765 2.100763 -1.304377 0.076820 0.066020 -0.088010 -0.354280 
0.009220 17.233830 -3.534530 -4.849534 -14.166500 -8.532392 -15.369272 14.436809 3.415425 9.003596 -0.482364 -16.275897 -12.077843 7.970718 16.899986 -0.228264 4.691675 2.683232 0.600570 0.243860 0.699290 17.827898 -10.243136 3.133159 0.368689 -0.029892 0.813212 9.449175 -6.391617 14.849812 -0.852798 -3.882291 2.972617 -0.035150 -0.494280 0.208050 -2.377672 -4.464691 -8.463054 15.424952 -1.103104 33.292468 -7.569689 7.284030 0.181553 12.290418 -2.349274 -14.059971 -9.441201 5.346834 67.002450 -9.817900 0.774450 -20.851370 -29.049011 -7.025285 2.035186 -44.638969 6.123917 -8.902334 -23.901765 -20.922124 0.700123 -3.143011 2.916061 0.910550 -0.459360 0.497690 -0.038080 4.563453 15.924070 9.875820 20.693085 -2.619106 -16.141835 -82.982525 35.818671 -33.418860 2.056077 -1.230979 0.075610 0.062940 -0.086470 -0.356570 
-0.022200 17.202740 -3.541230 -5.133628 -14.299160 -8.498322 -15.429704 14.452846 3.444110 9.836314 -0.383020 -17.942589 -12.417542 8.695816 19.159769 -0.162519 4.987777 2.558226 0.584250 0.223270 0.689420 17.780253 -10.156818 3.121835 0.812170 0.061210 0.730765 9.726969 -6.508854 15.484107 -0.854277 -3.915008 2.967505 -0.059070 -0.499480 0.208750 -2.220935 -4.624047 -8.511568 14.345608 -0.548872 33.841323 -5.858971 7.828119 -0.400375 11.858026 -2.083024 -13.745573 -8.168556 4.910699 66.745112 -10.524440 1.138450 -20.900280 -28.644667 -5.496093 1.550811 -45.225000 6.994342 -9.509831 -26.744276 -21.914078 1.276176 -3.144489 2.940727 0.900600 -0.464600 0.496790 -0.034920 5.084429 14.527750 10.003834 25.234459 -2.212192 -16.040984 -97.090433 40.152442 -48.891284 2.036699 -1.106023 0.084470 0.046690 -0.091830 -0.349350 
-0.047130 17.174860 -3.550940 -5.583779 -14.210199 -8.894278 -15.472326 14.479257 3.459043 10.648943 -0.303469 -19.435556 -12.211277 9.387772 21.885636 -0.107803 5.320044 2.410258 0.570800 0.207100 0.677710 17.753545 -10.067659 3.123070 1.334647 0.031660 1.093761 9.936410 -6.662515 16.049442 -0.873928 -3.981013 2.939625 -0.080550 -0.517180 0.211030 -2.128673 -4.804856 -8.539713 13.916669 -0.405494 34.869423 -4.575106 8.157544 -0.723147 11.370881 -1.824292 -13.592777 -7.219834 4.650490 66.808403 -10.989480 1.210500 -21.445260 -28.568944 -4.472414 1.143349 -45.569403 7.703752 -10.098620 -29.363037 -22.847250 1.863553 -3.131950 2.971934 0.903480 -0.482090 0.502650 -0.040470 5.992408 13.403714 10.404610 29.722793 -2.224077 -15.396323 -112.260038 43.110555 -69.836201 2.113917 -1.079611 0.095420 0.025870 -0.088870 -0.345090 
-0.069010 17.138800 -3.558580 -6.221543 -13.899649 -9.345460 -15.464723 14.425813 3.470231 11.418485 -0.322997 -20.914696 -11.615364 9.962457 24.792074 -0.066476 5.669162 2.258586 0.558020 0.182150 0.679900 17.776771 -10.039855 3.147401 1.781800 0.028526 1.485219 10.618370 -6.989302 16.778331 -0.902596 -4.124076 2.878060 -0.097520 -0.532060 0.217180 -2.186717 -4.751358 -8.548624 14.356474 -0.515180 35.555757 -3.719336 8.133043 -0.359820 10.638852 -1.355804 -13.461714 -5.856808 4.098040 66.640136 -11.190490 1.216340 -21.278180 -28.618905 -4.239992 1.079323 -45.768941 8.262227 -10.757540 -31.825787 -24.059928 2.512224 -3.127132 3.008477 0.901470 -0.489140 0.501440 -0.053380 7.422896 12.527255 10.776998 33.954246 -2.530496 -14.622380 -126.769673 45.719024 -95.467374 2.238557 -1.232319 0.100470 0.000460 -0.085110 -0.349590 
-0.086570 17.095830 -3.564060 -6.837698 -13.691090 -9.690026 -15.458444 14.352922 3.506870 12.035634 -0.443005 -22.541430 -10.803084 10.453832 27.867025 -0.038166 6.064595 2.106909 0.547340 0.149240 0.681720 17.803367 -10.011059 3.159114 2.222182 0.052970 1.690760 11.163263 -7.309411 17.570993 -0.928148 -4.259809 2.830952 -0.112920 -0.524830 0.225920 -2.246721 -4.688429 -8.564368 14.830508 -0.522158 36.099014 -2.739220 8.180696 -0.075604 9.799694 -0.992667 -13.263281 -4.882741 3.581915 66.163954 -11.195340 1.117760 -20.735660 -28.646086 -4.071538 1.077772 -46.405868 8.737151 -11.377962 -33.787255 -25.050221 3.045322 -3.139709 3.025178 0.909080 -0.481510 0.491450 -0.054150 9.055324 11.816934 10.953336 37.856660 -3.436223 -14.470674 -139.966679 49.622115 -124.004505 2.285313 -1.457190 0.090720 -0.008710 -0.079130 -0.359350 
